<svg width="14" height="14" viewBox="0 0 14 14" fill="none" xmlns="http://www.w3.org/2000/svg">
<path d="M6.99999 1.04981C5.82319 1.04981 4.67282 1.39877 3.69435 2.05256C2.71588 2.70636 1.95325 3.63562 1.50291 4.72284C1.05257 5.81006 0.934736 7.00641 1.16432 8.16059C1.3939 9.31478 1.96058 10.375 2.79271 11.2071C3.62483 12.0392 4.68502 12.6059 5.8392 12.8355C6.99339 13.0651 8.18974 12.9472 9.27696 12.4969C10.3642 12.0465 11.2934 11.2839 11.9472 10.3054C12.601 9.32698 12.95 8.17661 12.95 6.99981C12.9506 6.21826 12.7972 5.44426 12.4984 4.72208C12.1996 3.9999 11.7613 3.34372 11.2087 2.79108C10.6561 2.23845 9.9999 1.8002 9.27772 1.50141C8.55554 1.20262 7.78154 1.04916 6.99999 1.04981ZM6.99999 11.5498C6.10009 11.5498 5.22039 11.283 4.47215 10.783C3.7239 10.283 3.14072 9.57242 2.79634 8.74102C2.45196 7.90961 2.36185 6.99476 2.53742 6.11215C2.71298 5.22953 3.14633 4.4188 3.78265 3.78247C4.41898 3.14614 5.22972 2.7128 6.11233 2.53723C6.99494 2.36167 7.9098 2.45178 8.7412 2.79615C9.5726 3.14053 10.2832 3.72372 10.7832 4.47196C11.2831 5.22021 11.55 6.0999 11.55 6.99981C11.5512 7.59766 11.4343 8.18986 11.2061 8.74243C10.9779 9.29501 10.6427 9.79707 10.22 10.2198C9.79726 10.6426 9.29519 10.9777 8.74262 11.2059C8.19004 11.4341 7.59784 11.551 6.99999 11.5498ZM8.74999 5.14481L6.71999 7.59481L5.31999 6.57981C5.00499 6.33481 4.58499 6.40481 4.33999 6.71981C4.09499 7.03481 4.16499 7.45481 4.47999 7.69981C4.89999 8.01481 5.35499 8.32981 5.77499 8.64481C6.08999 8.85481 6.36999 9.16981 6.75499 9.20481C6.85999 9.20481 6.99999 9.20481 7.10499 9.13481L7.31499 8.92481L8.88999 7.03481C9.16999 6.68481 9.44999 6.36981 9.72999 6.01981C9.93999 5.73981 10.01 5.38981 9.76499 5.10981L9.65999 5.00481C9.41499 4.82981 8.99499 4.86481 8.74999 5.14481Z" fill="#93F597"/>
</svg>
