<svg width="126" height="52" viewBox="0 0 126 52" fill="none" xmlns="http://www.w3.org/2000/svg">
<rect x="3" y="44" width="46" height="8" fill="url(#paint0_linear_10_7)"/>
<path d="M3.32 39V11H8.68L25.2 31.16H22.6V11H29V39H23.68L7.12 18.84H9.72V39H3.32ZM45.4247 39.32C43.1314 39.32 41.0914 38.84 39.3047 37.88C37.5447 36.92 36.1447 35.6133 35.1047 33.96C34.0914 32.28 33.5847 30.3733 33.5847 28.24C33.5847 26.08 34.0914 24.1733 35.1047 22.52C36.1447 20.84 37.5447 19.5333 39.3047 18.6C41.0914 17.64 43.1314 17.16 45.4247 17.16C47.6914 17.16 49.718 17.64 51.5047 18.6C53.2914 19.5333 54.6914 20.8267 55.7047 22.48C56.718 24.1333 57.2247 26.0533 57.2247 28.24C57.2247 30.3733 56.718 32.28 55.7047 33.96C54.6914 35.6133 53.2914 36.92 51.5047 37.88C49.718 38.84 47.6914 39.32 45.4247 39.32ZM45.4247 34.2C46.4647 34.2 47.398 33.96 48.2247 33.48C49.0514 33 49.7047 32.32 50.1847 31.44C50.6647 30.5333 50.9047 29.4667 50.9047 28.24C50.9047 26.9867 50.6647 25.92 50.1847 25.04C49.7047 24.16 49.0514 23.48 48.2247 23C47.398 22.52 46.4647 22.28 45.4247 22.28C44.3847 22.28 43.4514 22.52 42.6247 23C41.798 23.48 41.1314 24.16 40.6247 25.04C40.1447 25.92 39.9047 26.9867 39.9047 28.24C39.9047 29.4667 40.1447 30.5333 40.6247 31.44C41.1314 32.32 41.798 33 42.6247 33.48C43.4514 33.96 44.3847 34.2 45.4247 34.2ZM88.9556 17.16C90.6623 17.16 92.169 17.5067 93.4756 18.2C94.809 18.8667 95.849 19.9067 96.5956 21.32C97.369 22.7067 97.7556 24.4933 97.7556 26.68V39H91.5156V27.64C91.5156 25.9067 91.1556 24.6267 90.4356 23.8C89.7156 22.9733 88.7023 22.56 87.3956 22.56C86.489 22.56 85.6756 22.7733 84.9556 23.2C84.2356 23.6 83.6756 24.2133 83.2756 25.04C82.8756 25.8667 82.6756 26.92 82.6756 28.2V39H76.4356V27.64C76.4356 25.9067 76.0756 24.6267 75.3556 23.8C74.6623 22.9733 73.6623 22.56 72.3556 22.56C71.449 22.56 70.6356 22.7733 69.9156 23.2C69.1956 23.6 68.6356 24.2133 68.2356 25.04C67.8356 25.8667 67.6356 26.92 67.6356 28.2V39H61.3956V17.48H67.3556V23.36L66.2356 21.64C66.9823 20.1733 68.0356 19.0667 69.3956 18.32C70.7823 17.5467 72.3556 17.16 74.1156 17.16C76.089 17.16 77.809 17.6667 79.2756 18.68C80.769 19.6667 81.7556 21.1867 82.2356 23.24L80.0356 22.64C80.7556 20.96 81.9023 19.6267 83.4756 18.64C85.0756 17.6533 86.9023 17.16 88.9556 17.16ZM114.185 39.32C111.732 39.32 109.572 38.84 107.705 37.88C105.865 36.92 104.438 35.6133 103.425 33.96C102.412 32.28 101.905 30.3733 101.905 28.24C101.905 26.08 102.398 24.1733 103.385 22.52C104.398 20.84 105.772 19.5333 107.505 18.6C109.238 17.64 111.198 17.16 113.385 17.16C115.492 17.16 117.385 17.6133 119.065 18.52C120.772 19.4 122.118 20.68 123.105 22.36C124.092 24.0133 124.585 26 124.585 28.32C124.585 28.56 124.572 28.84 124.545 29.16C124.518 29.4533 124.492 29.7333 124.465 30H106.985V26.36H121.185L118.785 27.44C118.785 26.32 118.558 25.3467 118.105 24.52C117.652 23.6933 117.025 23.0533 116.225 22.6C115.425 22.12 114.492 21.88 113.425 21.88C112.358 21.88 111.412 22.12 110.585 22.6C109.785 23.0533 109.158 23.7067 108.705 24.56C108.252 25.3867 108.025 26.3733 108.025 27.52V28.48C108.025 29.6533 108.278 30.6933 108.785 31.6C109.318 32.48 110.052 33.16 110.985 33.64C111.945 34.0933 113.065 34.32 114.345 34.32C115.492 34.32 116.492 34.1467 117.345 33.8C118.225 33.4533 119.025 32.9333 119.745 32.24L123.065 35.84C122.078 36.96 120.838 37.8267 119.345 38.44C117.852 39.0267 116.132 39.32 114.185 39.32Z" fill="white"/>
<defs>
<linearGradient id="paint0_linear_10_7" x1="3" y1="48" x2="49" y2="48" gradientUnits="userSpaceOnUse">
<stop stop-color="#8000FF"/>
<stop offset="1" stop-color="#4D0099"/>
</linearGradient>
</defs>
</svg>
